<svg xmlns="http://www.w3.org/2000/svg" viewBox="0 0 1536 1024">
<defs>
 <linearGradient id="bg" x1="0" y1="0" x2="1" y2="1"><stop stop-color="#fff"/><stop offset="1" stop-color="#f5faff"/></linearGradient>
 <linearGradient id="blue" x1="0" y1="0" x2="1" y2="1"><stop stop-color="#0b8df5"/><stop offset="1" stop-color="#123b78"/></linearGradient>
 <linearGradient id="orange" x1="0" y1="0" x2="1" y2="1"><stop stop-color="#ff7a00"/><stop offset="1" stop-color="#f02b00"/></linearGradient>
</defs>
<rect width="1536" height="1024" fill="url(#bg)"/>
<g font-family="Arial,Helvetica,sans-serif" font-weight="900">
 <text x="60" y="500" font-size="190" fill="url(#orange)">SEND</text>
 <text x="510" y="500" font-size="190" fill="url(#blue)">WAYO</text>
 <text x="235" y="635" font-size="115" fill="#111827">EXPRESS</text>
</g>
<path d="M390 360 C500 160 650 145 735 245 C765 285 735 305 690 310" fill="none" stroke="url(#blue)" stroke-width="34" stroke-linecap="round"/>
<path d="M700 560 C585 750 350 785 275 680 C245 610 350 595 440 615" fill="none" stroke="url(#orange)" stroke-width="34" stroke-linecap="round"/>
<line x1="1030" y1="230" x2="1030" y2="730" stroke="#123b78" stroke-width="5"/>
<g font-family="Arial,Helvetica,sans-serif" font-weight="800">
 <circle cx="1100" cy="315" r="55" fill="#1675d1"/><text x="1160" y="300" font-size="36" fill="#123b78">ENVÍOS DE</text><text x="1160" y="350" font-size="47" fill="#123b78">DINERO</text>
 <circle cx="1100" cy="490" r="55" fill="#f27a00"/><text x="1160" y="475" font-size="31" fill="#123b78">RECEPCIÓN Y ENVÍO</text><text x="1160" y="525" font-size="41" fill="#f27a00">DE PAQUETES</text>
 <circle cx="1100" cy="665" r="55" fill="#21a52a"/><text x="1160" y="650" font-size="31" fill="#123b78">RECARGAS Y</text><text x="1160" y="700" font-size="37" fill="#198c25">PAGOS DE SERVICIOS</text>
</g></svg>